<svg width="14" height="15" viewBox="0 0 14 15" fill="none" xmlns="http://www.w3.org/2000/svg">
<mask id="mask0" mask-type="alpha" maskUnits="userSpaceOnUse" x="1" y="1" width="13" height="13">
<path fill-rule="evenodd" clip-rule="evenodd" d="M1.16699 1.24878H13.1251V13.2068H1.16699V1.24878Z" fill="white"/>
</mask>
<g mask="url(#mask0)">
<path fill-rule="evenodd" clip-rule="evenodd" d="M2.54314 3.03398C2.54431 3.03398 2.51514 3.06431 2.47839 3.10048C2.33722 3.23756 2.04497 3.52281 2.04206 4.11956C2.03739 4.95431 2.58631 6.50423 5.22939 9.14673C7.86022 11.7764 9.4078 12.3317 10.2443 12.3317H10.2566C10.8533 12.3288 11.138 12.036 11.2756 11.8954C11.3176 11.8522 11.3515 11.8207 11.3754 11.8009C11.9564 11.2164 12.2539 10.7812 12.251 10.5024C12.2469 10.2177 11.8928 9.88114 11.4034 9.41564C11.2476 9.26748 11.0785 9.10648 10.9 8.92798C10.4374 8.46656 10.2081 8.54531 9.70414 8.72264C9.00705 8.96706 8.05039 9.29956 6.56405 7.81264C5.07539 6.32514 5.40847 5.36964 5.65231 4.67256C5.82847 4.16856 5.90897 3.93873 5.44581 3.47556C5.26439 3.29473 5.10164 3.12323 4.95172 2.96573C4.48914 2.47923 4.15547 2.12748 3.87256 2.12339H3.86789C3.58847 2.12339 3.15447 2.42206 2.54022 3.03631C2.54197 3.03456 2.54256 3.03398 2.54314 3.03398ZM10.2449 13.2067C8.79121 13.2067 6.89596 12.0494 4.61104 9.76563C2.31737 7.47255 1.15829 5.57146 1.16704 4.11488C1.17229 3.15238 1.67687 2.65946 1.86646 2.47455C1.87637 2.4623 1.91021 2.42905 1.92187 2.41738C2.75837 1.5803 3.32246 1.24196 3.88363 1.24838C4.53521 1.25713 4.99896 1.7448 5.58579 2.36255C5.73104 2.51538 5.88854 2.68163 6.06413 2.85663C6.91579 3.7083 6.67313 4.40305 6.47829 4.96071C6.26596 5.56913 6.08221 6.09413 7.18237 7.1943C8.28371 8.29446 8.80871 8.11071 9.41479 7.89663C9.97304 7.7018 10.666 7.45796 11.5189 8.30963C11.6915 8.4823 11.8555 8.63805 12.0065 8.78213C12.6272 9.37188 13.1172 9.83797 13.1254 10.4913C13.1324 11.0484 12.794 11.616 11.9587 12.4519L11.5889 12.201L11.9015 12.5067C11.7166 12.6963 11.2243 13.2015 10.2612 13.2067H10.2449Z" fill="#130F26"/>
</g>
</svg>
