<svg width="122" height="108" viewBox="0 0 122 108" fill="none" xmlns="http://www.w3.org/2000/svg">
<path d="M1.52344 50V32.9375H7.5C9.57031 32.9375 11.1406 33.3359 12.2109 34.1328C13.2812 34.9219 13.8164 36.082 13.8164 37.6133C13.8164 38.4492 13.6016 39.1875 13.1719 39.8281C12.7422 40.4609 12.1445 40.9258 11.3789 41.2227C12.2539 41.4414 12.9414 41.8828 13.4414 42.5469C13.9492 43.2109 14.2031 44.0234 14.2031 44.9844C14.2031 46.625 13.6797 47.8672 12.6328 48.7109C11.5859 49.5547 10.0938 49.9844 8.15625 50H1.52344ZM5.03906 42.5703V47.1758H8.05078C8.87891 47.1758 9.52344 46.9805 9.98438 46.5898C10.4531 46.1914 10.6875 45.6445 10.6875 44.9492C10.6875 43.3867 9.87891 42.5938 8.26172 42.5703H5.03906ZM5.03906 40.0859H7.64062C9.41406 40.0547 10.3008 39.3477 10.3008 37.9648C10.3008 37.1914 10.0742 36.6367 9.62109 36.3008C9.17578 35.957 8.46875 35.7852 7.5 35.7852H5.03906V40.0859ZM30.8672 41.8555C30.8672 43.5352 30.5703 45.0078 29.9766 46.2734C29.3828 47.5391 28.5312 48.5156 27.4219 49.2031C26.3203 49.8906 25.0547 50.2344 23.625 50.2344C22.2109 50.2344 20.9492 49.8945 19.8398 49.2148C18.7305 48.5352 17.8711 47.5664 17.2617 46.3086C16.6523 45.043 16.3438 43.5898 16.3359 41.9492V41.1055C16.3359 39.4258 16.6367 37.9492 17.2383 36.6758C17.8477 35.3945 18.7031 34.4141 19.8047 33.7344C20.9141 33.0469 22.1797 32.7031 23.6016 32.7031C25.0234 32.7031 26.2852 33.0469 27.3867 33.7344C28.4961 34.4141 29.3516 35.3945 29.9531 36.6758C30.5625 37.9492 30.8672 39.4219 30.8672 41.0938V41.8555ZM27.3047 41.082C27.3047 39.293 26.9844 37.9336 26.3438 37.0039C25.7031 36.0742 24.7891 35.6094 23.6016 35.6094C22.4219 35.6094 21.5117 36.0703 20.8711 36.9922C20.2305 37.9062 19.9062 39.25 19.8984 41.0234V41.8555C19.8984 43.5977 20.2188 44.9492 20.8594 45.9102C21.5 46.8711 22.4219 47.3516 23.625 47.3516C24.8047 47.3516 25.7109 46.8906 26.3438 45.9688C26.9766 45.0391 27.2969 43.6875 27.3047 41.9141V41.082ZM47.4375 41.8555C47.4375 43.5352 47.1406 45.0078 46.5469 46.2734C45.9531 47.5391 45.1016 48.5156 43.9922 49.2031C42.8906 49.8906 41.625 50.2344 40.1953 50.2344C38.7812 50.2344 37.5195 49.8945 36.4102 49.2148C35.3008 48.5352 34.4414 47.5664 33.832 46.3086C33.2227 45.043 32.9141 43.5898 32.9062 41.9492V41.1055C32.9062 39.4258 33.207 37.9492 33.8086 36.6758C34.418 35.3945 35.2734 34.4141 36.375 33.7344C37.4844 33.0469 38.75 32.7031 40.1719 32.7031C41.5938 32.7031 42.8555 33.0469 43.957 33.7344C45.0664 34.4141 45.9219 35.3945 46.5234 36.6758C47.1328 37.9492 47.4375 39.4219 47.4375 41.0938V41.8555ZM43.875 41.082C43.875 39.293 43.5547 37.9336 42.9141 37.0039C42.2734 36.0742 41.3594 35.6094 40.1719 35.6094C38.9922 35.6094 38.082 36.0703 37.4414 36.9922C36.8008 37.9062 36.4766 39.25 36.4688 41.0234V41.8555C36.4688 43.5977 36.7891 44.9492 37.4297 45.9102C38.0703 46.8711 38.9922 47.3516 40.1953 47.3516C41.375 47.3516 42.2812 46.8906 42.9141 45.9688C43.5469 45.0391 43.8672 43.6875 43.875 41.9141V41.082ZM55.3359 43.1562L53.5078 45.125V50H49.9922V32.9375H53.5078V40.6719L55.0547 38.5508L59.4023 32.9375H63.7266L57.668 40.5195L63.9023 50H59.7188L55.3359 43.1562ZM68.9648 50H65.4492V32.9375H68.9648V50ZM86.1094 50H82.5938L75.75 38.7734V50H72.2344V32.9375H75.75L82.6055 44.1875V32.9375H86.1094V50ZM102.68 47.8438C102.047 48.6016 101.152 49.1914 99.9961 49.6133C98.8398 50.0273 97.5586 50.2344 96.1523 50.2344C94.6758 50.2344 93.3789 49.9141 92.2617 49.2734C91.1523 48.625 90.293 47.6875 89.6836 46.4609C89.082 45.2344 88.7734 43.793 88.7578 42.1367V40.9766C88.7578 39.2734 89.043 37.8008 89.6133 36.5586C90.1914 35.3086 91.0195 34.3555 92.0977 33.6992C93.1836 33.0352 94.4531 32.7031 95.9062 32.7031C97.9297 32.7031 99.5117 33.1875 100.652 34.1562C101.793 35.1172 102.469 36.5195 102.68 38.3633H99.2578C99.1016 37.3867 98.7539 36.6719 98.2148 36.2188C97.6836 35.7656 96.9492 35.5391 96.0117 35.5391C94.8164 35.5391 93.9062 35.9883 93.2812 36.8867C92.6562 37.7852 92.3398 39.1211 92.332 40.8945V41.9844C92.332 43.7734 92.6719 45.125 93.3516 46.0391C94.0312 46.9531 95.0273 47.4102 96.3398 47.4102C97.6602 47.4102 98.6016 47.1289 99.1641 46.5664V43.625H95.9648V41.0352H102.68V47.8438ZM6.11719 60.9375L10.5 73.3125L14.8594 60.9375H19.4766V78H15.9492V73.3359L16.3008 65.2852L11.6953 78H9.28125L4.6875 65.2969L5.03906 73.3359V78H1.52344V60.9375H6.11719ZM36.5625 69.8555C36.5625 71.5352 36.2656 73.0078 35.6719 74.2734C35.0781 75.5391 34.2266 76.5156 33.1172 77.2031C32.0156 77.8906 30.75 78.2344 29.3203 78.2344C27.9062 78.2344 26.6445 77.8945 25.5352 77.2148C24.4258 76.5352 23.5664 75.5664 22.957 74.3086C22.3477 73.043 22.0391 71.5898 22.0312 69.9492V69.1055C22.0312 67.4258 22.332 65.9492 22.9336 64.6758C23.543 63.3945 24.3984 62.4141 25.5 61.7344C26.6094 61.0469 27.875 60.7031 29.2969 60.7031C30.7188 60.7031 31.9805 61.0469 33.082 61.7344C34.1914 62.4141 35.0469 63.3945 35.6484 64.6758C36.2578 65.9492 36.5625 67.4219 36.5625 69.0938V69.8555ZM33 69.082C33 67.293 32.6797 65.9336 32.0391 65.0039C31.3984 64.0742 30.4844 63.6094 29.2969 63.6094C28.1172 63.6094 27.207 64.0703 26.5664 64.9922C25.9258 65.9062 25.6016 67.25 25.5938 69.0234V69.8555C25.5938 71.5977 25.9141 72.9492 26.5547 73.9102C27.1953 74.8711 28.1172 75.3516 29.3203 75.3516C30.5 75.3516 31.4062 74.8906 32.0391 73.9688C32.6719 73.0391 32.9922 71.6875 33 69.9141V69.082ZM50.9531 63.7852H45.7266V78H42.2109V63.7852H37.0547V60.9375H50.9531V63.7852ZM66.6562 69.8555C66.6562 71.5352 66.3594 73.0078 65.7656 74.2734C65.1719 75.5391 64.3203 76.5156 63.2109 77.2031C62.1094 77.8906 60.8438 78.2344 59.4141 78.2344C58 78.2344 56.7383 77.8945 55.6289 77.2148C54.5195 76.5352 53.6602 75.5664 53.0508 74.3086C52.4414 73.043 52.1328 71.5898 52.125 69.9492V69.1055C52.125 67.4258 52.4258 65.9492 53.0273 64.6758C53.6367 63.3945 54.4922 62.4141 55.5938 61.7344C56.7031 61.0469 57.9688 60.7031 59.3906 60.7031C60.8125 60.7031 62.0742 61.0469 63.1758 61.7344C64.2852 62.4141 65.1406 63.3945 65.7422 64.6758C66.3516 65.9492 66.6562 67.4219 66.6562 69.0938V69.8555ZM63.0938 69.082C63.0938 67.293 62.7734 65.9336 62.1328 65.0039C61.4922 64.0742 60.5781 63.6094 59.3906 63.6094C58.2109 63.6094 57.3008 64.0703 56.6602 64.9922C56.0195 65.9062 55.6953 67.25 55.6875 69.0234V69.8555C55.6875 71.5977 56.0078 72.9492 56.6484 73.9102C57.2891 74.8711 58.2109 75.3516 59.4141 75.3516C60.5938 75.3516 61.5 74.8906 62.1328 73.9688C62.7656 73.0391 63.0859 71.6875 63.0938 69.9141V69.082ZM69.2109 78V60.9375H75.1875C77.2578 60.9375 78.8281 61.3359 79.8984 62.1328C80.9688 62.9219 81.5039 64.082 81.5039 65.6133C81.5039 66.4492 81.2891 67.1875 80.8594 67.8281C80.4297 68.4609 79.832 68.9258 79.0664 69.2227C79.9414 69.4414 80.6289 69.8828 81.1289 70.5469C81.6367 71.2109 81.8906 72.0234 81.8906 72.9844C81.8906 74.625 81.3672 75.8672 80.3203 76.7109C79.2734 77.5547 77.7812 77.9844 75.8438 78H69.2109ZM72.7266 70.5703V75.1758H75.7383C76.5664 75.1758 77.2109 74.9805 77.6719 74.5898C78.1406 74.1914 78.375 73.6445 78.375 72.9492C78.375 71.3867 77.5664 70.5938 75.9492 70.5703H72.7266ZM72.7266 68.0859H75.3281C77.1016 68.0547 77.9883 67.3477 77.9883 65.9648C77.9883 65.1914 77.7617 64.6367 77.3086 64.3008C76.8633 63.957 76.1562 63.7852 75.1875 63.7852H72.7266V68.0859ZM88.2773 78H84.7617V60.9375H88.2773V78ZM96.8906 71.1562L95.0625 73.125V78H91.5469V60.9375H95.0625V68.6719L96.6094 66.5508L100.957 60.9375H105.281L99.2227 68.5195L105.457 78H101.273L96.8906 71.1562ZM117.047 70.6055H110.297V75.1758H118.219V78H106.781V60.9375H118.195V63.7852H110.297V67.8516H117.047V70.6055Z" fill="#142C5C"/>
<g opacity="0.31">
<g clip-path="url(#clip0)">
<path d="M40.4048 50.8798L48.1203 41.1096L68.075 35.1988L70.1132 42.0797L52.4155 47.322L44.6277 57.1136L20.5444 64.2474L18.5062 57.3664L40.4048 50.8798ZM48.713 67.355L57.691 60.71L61.9602 66.481L52.9812 73.1226C54.5736 76.759 54.7707 80.8545 53.5348 84.627C52.2989 88.3995 49.7166 91.5844 46.2811 93.5736C42.8457 95.5627 38.7979 96.2167 34.9108 95.4104C31.0238 94.6042 27.57 92.3943 25.2091 89.2029C22.8482 86.0115 21.7457 82.0622 22.1121 78.1094C22.4785 74.1566 24.2882 70.4773 27.1956 67.7743C30.1029 65.0712 33.9041 63.5339 37.8731 63.4559C41.8421 63.378 45.7007 64.7648 48.712 67.3516L48.713 67.355ZM40.739 88.2042C43.0201 87.5285 44.9395 85.9743 46.0747 83.8835C47.2099 81.7926 47.4681 79.3365 46.7924 77.0553C46.1167 74.7741 44.5624 72.8548 42.4716 71.7196C40.3808 70.5843 37.9246 70.3262 35.6434 71.0019C33.3622 71.6776 31.4429 73.2318 30.3077 75.3227C29.1725 77.4135 28.9143 79.8697 29.59 82.1508C30.2657 84.432 31.82 86.3513 33.9108 87.4866C36.0016 88.6218 38.4578 88.8799 40.739 88.2042ZM87.5033 81.8367C85.4702 82.4389 83.3383 82.6348 81.2295 82.4132C79.1206 82.1915 77.0761 81.5567 75.2126 80.5449C73.3491 79.5331 71.7031 78.1642 70.3687 76.5163C69.0342 74.8683 68.0374 72.9737 67.4352 70.9406C66.8329 68.9075 66.6371 66.7756 66.8587 64.6668C67.0804 62.5579 67.7152 60.5134 68.727 58.6499C69.7388 56.7864 71.1077 55.1404 72.7556 53.806C74.4035 52.4715 76.2982 51.4747 78.3313 50.8725C82.4374 49.6562 86.8585 50.1209 90.622 52.1643C94.3855 54.2077 97.1831 57.6625 98.3994 61.7686C99.6157 65.8747 99.151 70.2958 97.1076 74.0593C95.0642 77.8228 91.6094 80.6204 87.5033 81.8367ZM85.4651 74.9558C87.7463 74.28 89.6656 72.7258 90.8008 70.635C91.936 68.5441 92.1942 66.088 91.5185 63.8068C90.8428 61.5256 89.2885 59.6063 87.1977 58.4711C85.1069 57.3358 82.6507 57.0777 80.3695 57.7534C78.0883 58.4291 76.169 59.9833 75.0338 62.0742C73.8986 64.165 73.6404 66.6212 74.3161 68.9024C74.9918 71.1835 76.5461 73.1029 78.6369 74.2381C80.7277 75.3733 83.1839 75.6315 85.4651 74.9558ZM26.4062 58.7687L47.0491 52.654L54.2282 44.042L54.1255 40.1579L61.3004 39.9711L61.9551 66.4638L54.7816 65.2655L54.7392 63.6315L48.7042 70.8755L43.2255 65.0136L29.4636 69.0901L26.4062 58.7687ZM62.9128 29.2432L76.3582 25.2605L79.4155 35.5819L69.7272 38.4517L81.7097 54.647L75.9387 58.9162L62.4059 40.6204L62.2132 40.6775L62.0583 40.1545L53.3201 28.3423L44.3749 30.992L42.3366 24.1111L56.0985 20.0346L62.9128 29.2432Z" fill="#142C5C"/>
</g>
</g>
<defs>
<clipPath id="clip0">
<rect width="86.1176" height="86.1177" fill="white" transform="translate(1.43408 25) rotate(-16.5)"/>
</clipPath>
</defs>
</svg>
